<?xml version="1.0" encoding="UTF-8" standalone="no"?>
<svg
   width="170"
   height="170"
   viewBox="0 0 170 170"
   version="1.2"
   id="svg242"
   xmlns="http://www.w3.org/2000/svg"
   xmlns:svg="http://www.w3.org/2000/svg">
  <defs
     id="defs246" />
  <g
     id="surface89083"
     style="display:inline"
     transform="matrix(0.52307692,0,0,0.52307692,-9.1538462,-9.1538462)">
    <path
       style="display:inline;fill:#195eb3;fill-opacity:1;fill-rule:evenodd;stroke:none"
       d="M 20,20 180,340 340,20 Z m 0,0"
       id="path141" />
    <path
       style="display:inline;fill:none;stroke:#ffffff;stroke-width:5;stroke-linecap:round;stroke-linejoin:round;stroke-miterlimit:10;stroke-opacity:1"
       d="M 180,340 340,20"
       id="path177" />
    <path
       style="display:inline;fill:none;stroke:#ffffff;stroke-width:5;stroke-linecap:round;stroke-linejoin:round;stroke-miterlimit:10;stroke-opacity:1"
       d="M 20,20 180,340"
       id="path209" />
    <path
       style="display:inline;fill:#ffffff;fill-opacity:1;stroke:#ffffff;stroke-width:5;stroke-linecap:round;stroke-linejoin:round;stroke-miterlimit:10;stroke-opacity:1"
       d="M 20,20 H 340"
       id="path211" />
    <path
       style="display:inline;fill:none;stroke:#ffffff;stroke-width:5;stroke-linecap:round;stroke-linejoin:round;stroke-miterlimit:10;stroke-opacity:1"
       d="M 180,180 V 340"
       id="path215" />
    <path
       style="display:inline;fill:none;stroke:#ffffff;stroke-width:5;stroke-linecap:round;stroke-linejoin:round;stroke-miterlimit:10;stroke-opacity:1"
       d="M 20,20 180,260"
       id="path219" />
    <path
       style="display:inline;fill:none;stroke:#ffffff;stroke-width:5;stroke-linecap:round;stroke-linejoin:round;stroke-miterlimit:10;stroke-opacity:1"
       d="M 180,260 340,20 180,180"
       id="path223" />
    <path
       style="display:inline;fill:none;stroke:#ffffff;stroke-width:5;stroke-linecap:round;stroke-linejoin:round;stroke-miterlimit:10;stroke-opacity:1"
       d="M 340,20 180,60 v 40"
       id="path235" />
    <path
       style="display:inline;fill:none;stroke:#ffffff;stroke-width:5;stroke-linecap:round;stroke-linejoin:round;stroke-miterlimit:10;stroke-opacity:1"
       d="m 20,20 160,40 v 40"
       id="path239" />
  </g>
  <g
     id="layer2"
     style="display:inline"
     transform="translate(-17.5,-17.5)">
    <path
       style="display:inline;fill:#ffffff;fill-rule:evenodd;stroke-width:0.523077"
       d="m 21.846453,21.846453 81.045857,81.045857 81.6,-81.600002 -2.41923,-0.653846 L 102.66332,59.57332 21.946154,21.586538"
       id="path1874" />
  </g>
  <path
     style="fill:#ffffff;fill-rule:evenodd;stroke-width:0.523077"
     d="M 1.757355,1.526186 84.79344,126.21902 168.10694,1.57242 85.34826,22.470145 Z"
     id="path1918" />
</svg>
